Coordinates
version=1
nRows=38
nColumns=38
inDegrees=no

Units are S.I. units (second, meters, Newtons, ...)
If the header above contains a line with 'inDegrees', this indicates whether rotational values are in degrees (yes) or radians (no).

endheader
time	pelvis_tilt	pelvis_list	pelvis_rotation	pelvis_tx	pelvis_ty	pelvis_tz	hip_flexion_r	hip_adduction_r	hip_rotation_r	knee_angle_r	ankle_angle_r	subtalar_angle_r	mtp_angle_r	hip_flexion_l	hip_adduction_l	hip_rotation_l	knee_angle_l	ankle_angle_l	subtalar_angle_l	mtp_angle_l	lumbar_extension	lumbar_bending	lumbar_rotation	arm_flex_r	arm_add_r	arm_rot_r	elbow_flex_r	pro_sup_r	wrist_flex_r	wrist_dev_r	arm_flex_l	arm_add_l	arm_rot_l	elbow_flex_l	pro_sup_l	wrist_flex_l	wrist_dev_l
1.91	2.98585	1.21044	-1.26747	0.79618	1.42813	0.934934	-0.0134047	0.0724804	-0.265498	0.449758	-0.254647	0	0	-0.291255	-0.206573	-0.032555	1.12597	-0.376561	0	0	-0.33701	0.180866	0.148557	-0.213979	-0.747442	-0.11048	1.66653	0.619365	0	0	0.510922	-0.534081	0.6522	1.18443	0.73211	0	0
1.92	2.9874	1.2046	-1.26992	0.797096	1.43841	0.935752	-0.0301345	0.0779762	-0.263781	0.452748	-0.24445	0	0	-0.261909	-0.206358	-0.0185889	1.18517	-0.38447	0	0	-0.344213	0.18189	0.154014	-0.218792	-0.752147	-0.116337	1.67236	0.613801	0	0	0.5153	-0.532974	0.656024	1.18608	0.728485	0	0
1.93	2.99065	1.19767	-1.27292	0.797855	1.44859	0.937022	-0.0510298	0.0833204	-0.261054	0.450993	-0.234271	0	0	-0.234354	-0.204255	-0.00433044	1.23885	-0.378752	0	0	-0.352123	0.182663	0.158399	-0.222575	-0.755982	-0.12135	1.67606	0.609165	0	0	0.519966	-0.531217	0.660333	1.1865	0.725856	0	0
1.94	2.9974	1.1893	-1.27791	0.798522	1.45872	0.938824	-0.0767799	0.0880701	-0.258066	0.443281	-0.226115	0	0	-0.21	-0.199431	0.0113685	1.28576	-0.357205	0	0	-0.361167	0.182495	0.161147	-0.224713	-0.758265	-0.125044	1.67701	0.606029	0	0	0.524865	-0.529299	0.665203	1.18574	0.722444	0	0
1.95	3.00806	1.17919	-1.2857	0.799141	1.46882	0.941088	-0.107344	0.0922909	-0.255458	0.430031	-0.220636	0	0	-0.189932	-0.192709	0.0268751	1.3256	-0.323665	0	0	-0.371777	0.181043	0.162632	-0.225651	-0.759299	-0.127568	1.67608	0.603959	0	0	0.530761	-0.527848	0.671749	1.18379	0.719222	0	0
1.96	3.02039	1.16924	-1.29546	0.799829	1.47894	0.943557	-0.139164	0.0957939	-0.253277	0.413637	-0.219109	0	0	-0.171288	-0.184937	0.0387527	1.35837	-0.293635	0	0	-0.38202	0.178278	0.163488	-0.225147	-0.759545	-0.128361	1.67377	0.602609	0	0	0.53604	-0.527119	0.678146	1.18172	0.716906	0	0
1.97	3.03175	1.16125	-1.30563	0.800681	1.48912	0.945926	-0.1687	0.0987576	-0.252154	0.397365	-0.218934	0	0	-0.151501	-0.176381	0.0466962	1.38406	-0.272554	0	0	-0.390145	0.174661	0.164774	-0.223968	-0.759376	-0.128035	1.6709	0.602356	0	0	0.539745	-0.527014	0.683272	1.1803	0.71621	0	0
1.98	3.04222	1.15563	-1.31652	0.801665	1.49928	0.948051	-0.19495	0.100675	-0.252901	0.381951	-0.219625	0	0	-0.130182	-0.167328	0.0509639	1.40227	-0.255975	0	0	-0.396057	0.170123	0.167134	-0.223258	-0.758719	-0.128189	1.66829	0.6024	0	0	0.54245	-0.527104	0.687555	1.17958	0.715265	0	0
1.99	3.05197	1.15284	-1.32861	0.80278	1.50943	0.949871	-0.216913	0.100932	-0.25528	0.369022	-0.220352	0	0	-0.107541	-0.15861	0.0523637	1.41411	-0.241754	0	0	-0.399416	0.164489	0.170858	-0.22318	-0.757675	-0.128592	1.66607	0.603078	0	0	0.544135	-0.526859	0.690543	1.17894	0.713621	0	0
2	3.06172	1.15199	-1.34218	0.804097	1.51961	0.951463	-0.236129	0.0998316	-0.258959	0.357969	-0.220368	0	0	-0.0841724	-0.150474	0.0493986	1.41904	-0.229861	0	0	-0.401036	0.157756	0.175639	-0.223613	-0.755502	-0.129552	1.66425	0.603738	0	0	0.545064	-0.526508	0.692403	1.17827	0.710632	0	0
2.01	3.07174	1.15176	-1.35726	0.805432	1.5297	0.952883	-0.253863	0.0973783	-0.263144	0.348851	-0.219533	0	0	-0.0617593	-0.143777	0.0410824	1.41695	-0.220696	0	0	-0.402417	0.150594	0.181147	-0.224171	-0.753495	-0.130943	1.66329	0.603876	0	0	0.545574	-0.526311	0.693241	1.17786	0.708041	0	0
2.02	3.08117	1.15045	-1.37271	0.80673	1.53975	0.954202	-0.272591	0.0947672	-0.265657	0.339852	-0.218359	0	0	-0.0424988	-0.139134	0.0284155	1.40861	-0.210778	0	0	-0.404985	0.143664	0.18801	-0.2259	-0.752364	-0.133432	1.66362	0.602777	0	0	0.546987	-0.526069	0.694997	1.17755	0.706041	0	0
2.03	3.08948	1.14805	-1.38766	0.808025	1.54974	0.955389	-0.292156	0.0925384	-0.266554	0.331013	-0.21695	0	0	-0.0259232	-0.136553	0.0119482	1.39494	-0.201414	0	0	-0.40869	0.137179	0.195695	-0.228108	-0.75263	-0.135799	1.66492	0.60136	0	0	0.548772	-0.525879	0.696706	1.17771	0.705751	0	0
2.04	3.09662	1.14495	-1.402	0.809329	1.55968	0.95644	-0.312082	0.0908618	-0.265501	0.322024	-0.215411	0	0	-0.0112409	-0.135946	-0.00874544	1.37674	-0.193431	0	0	-0.413217	0.13114	0.204109	-0.230556	-0.753635	-0.138286	1.6669	0.600332	0	0	0.550627	-0.525644	0.698192	1.1784	0.705863	0	0
2.05	3.10394	1.14662	-1.41606	0.810413	1.57003	0.95686	-0.326149	0.0876508	-0.265929	0.315575	-0.21229	0	0	0.0077316	-0.13692	-0.0344209	1.35611	-0.186611	0	0	-0.411749	0.124642	0.211409	-0.234387	-0.754097	-0.140672	1.66894	0.598791	0	0	0.550472	-0.525527	0.698922	1.1793	0.70562	0	0
2.06	3.1047	1.13657	-1.42598	0.811893	1.5796	0.958021	-0.35342	0.0900898	-0.260187	0.303689	-0.211736	0	0	0.0126498	-0.150175	-0.0749511	1.32956	-0.184678	0	0	-0.424057	0.121434	0.222944	-0.236443	-0.757713	-0.143494	1.67256	0.594472	0	0	0.55487	-0.524974	0.701225	1.1803	0.704257	0	0
2.07	3.10915	1.13571	-1.43776	0.813017	1.58998	0.958224	-0.370606	0.0884738	-0.259897	0.295646	-0.209593	0	0	0.0252084	-0.160638	-0.116276	1.30073	-0.18431	0	0	-0.424972	0.116117	0.231323	-0.240488	-0.759241	-0.145752	1.67517	0.590936	0	0	0.555603	-0.524724	0.702157	1.18106	0.702014	0	0
2.08	3.11237	1.13121	-1.44835	0.814106	1.59976	0.958707	-0.391487	0.0879703	-0.256848	0.286554	-0.207459	0	0	0.0304251	-0.167244	-0.150206	1.26344	-0.186121	0	0	-0.430742	0.111777	0.23974	-0.241851	-0.761753	-0.147158	1.67727	0.587926	0	0	0.557608	-0.523822	0.702265	1.18119	0.700841	0	0
2.09	3.11498	1.12711	-1.45708	0.815035	1.60947	0.959049	-0.4119	0.0876497	-0.254164	0.277652	-0.205317	0	0	0.033751	-0.17086	-0.178036	1.21897	-0.191636	0	0	-0.436308	0.108129	0.246993	-0.243221	-0.764175	-0.148768	1.67968	0.585349	0	0	0.559662	-0.52319	0.702657	1.18181	0.701389	0	0
2.1	3.11666	1.12459	-1.46329	0.815709	1.61919	0.959144	-0.430182	0.0875719	-0.25252	0.269769	-0.203091	0	0	0.0371721	-0.172096	-0.200826	1.16903	-0.198832	0	0	-0.439981	0.105592	0.252335	-0.244007	-0.766153	-0.150039	1.68189	0.583665	0	0	0.56055	-0.522421	0.701963	1.18274	0.700092	0	0
2.11	3.11809	1.12277	-1.46746	0.816166	1.62884	0.95903	-0.447669	0.0879836	-0.251786	0.262069	-0.200273	0	0	0.0392498	-0.17138	-0.219304	1.11515	-0.206502	0	0	-0.44285	0.103862	0.255803	-0.244247	-0.767521	-0.151355	1.68387	0.582369	0	0	0.561433	-0.521821	0.700802	1.18325	0.699977	0	0
2.12	3.11931	1.12215	-1.46994	0.816437	1.63844	0.958707	-0.463632	0.0887966	-0.251734	0.254916	-0.197114	0	0	0.0408671	-0.168771	-0.235044	1.05768	-0.213195	0	0	-0.444419	0.102642	0.25772	-0.244215	-0.768562	-0.152339	1.68541	0.581955	0	0	0.561289	-0.520757	0.697883	1.18365	0.701511	0	0
2.13	3.11997	1.12325	-1.47081	0.816596	1.64807	0.958152	-0.477511	0.0900634	-0.252185	0.248368	-0.193211	0	0	0.0418539	-0.164396	-0.248577	0.995025	-0.218298	0	0	-0.444708	0.101931	0.258437	-0.24414	-0.768643	-0.153735	1.6871	0.581371	0	0	0.55963	-0.520196	0.693503	1.18569	0.704734	0	0
2.14	3.11971	1.12648	-1.46998	0.816614	1.65772	0.957341	-0.488663	0.0915943	-0.253059	0.242898	-0.189377	0	0	0.0426716	-0.158106	-0.25958	0.928684	-0.21946	0	0	-0.442797	0.1018	0.257843	-0.243135	-0.768308	-0.154365	1.68785	0.581441	0	0	0.557108	-0.520465	0.689119	1.18869	0.707536	0	0
2.15	3.11897	1.13171	-1.46796	0.816524	1.66738	0.956241	-0.497302	0.0934709	-0.254022	0.238408	-0.184002	0	0	0.0432865	-0.149351	-0.266499	0.858564	-0.21718	0	0	-0.438392	0.101872	0.2557	-0.240258	-0.767221	-0.1535	1.68693	0.581734	0	0	0.553816	-0.52137	0.68401	1.19178	0.711077	0	0
2.16	3.11756	1.13958	-1.46435	0.81631	1.67706	0.954862	-0.502336	0.0955369	-0.255012	0.235434	-0.176042	0	0	0.0439798	-0.137195	-0.265253	0.78287	-0.210659	0	0	-0.431231	0.102367	0.25163	-0.235455	-0.765313	-0.150996	1.68478	0.582149	0	0	0.548668	-0.522725	0.676478	1.19535	0.717004	0	0
2.17	3.11982	1.15319	-1.46264	0.816052	1.68637	0.95339	-0.499269	0.0960787	-0.25438	0.23637	-0.166547	0	0	0.0362411	-0.101854	-0.204562	0.670279	-0.194569	0	0	-0.419611	0.100989	0.244104	-0.227009	-0.761041	-0.145795	1.67997	0.586318	0	0	0.540874	-0.523695	0.664391	1.19858	0.725226	0	0
2.18	3.11696	1.16509	-1.45602	0.815658	1.69602	0.951659	-0.498643	0.0987588	-0.253273	0.236052	-0.158989	0	0	0.0263407	-0.0795434	-0.165821	0.561833	-0.188764	0	0	-0.408588	0.10205	0.236999	-0.219709	-0.757701	-0.140717	1.67604	0.593175	0	0	0.532579	-0.524861	0.652667	1.2027	0.731602	0	0
2.19	3.11018	1.17608	-1.4452	0.815096	1.70589	0.949684	-0.499145	0.103102	-0.251498	0.235544	-0.151667	0	0	0.0162121	-0.0652321	-0.142053	0.458751	-0.192575	0	0	-0.397558	0.104929	0.229968	-0.213631	-0.754743	-0.136399	1.67265	0.601228	0	0	0.524677	-0.52588	0.642122	1.20649	0.738173	0	0
2.2	3.10022	1.1859	-1.43122	0.814316	1.71597	0.947508	-0.500507	0.108205	-0.250434	0.236119	-0.14449	0	0	0.0112334	-0.0601353	-0.145202	0.376177	-0.200505	0	0	-0.386822	0.109345	0.224231	-0.210654	-0.752762	-0.134465	1.67086	0.607274	0	0	0.518421	-0.525884	0.634257	1.209	0.74433	0	0
2.21	3.09019	1.19499	-1.41733	0.813527	1.7261	0.945331	-0.501703	0.112902	-0.249991	0.238694	-0.137043	0	0	0.00603262	-0.0552578	-0.150456	0.301078	-0.208763	0	0	-0.376426	0.113448	0.21941	-0.208814	-0.751269	-0.133221	1.66909	0.611088	0	0	0.514096	-0.525121	0.628966	1.2098	0.749088	0	0
2.22	3.0805	1.20379	-1.40385	0.812685	1.73629	0.943223	-0.502218	0.116868	-0.250321	0.243328	-0.130662	0	0	0.000748211	-0.0501941	-0.154748	0.232961	-0.217707	0	0	-0.3665	0.117212	0.214726	-0.207424	-0.749789	-0.132449	1.66748	0.614408	0	0	0.510511	-0.524396	0.624854	1.21009	0.753523	0	0
2.23	3.07093	1.21229	-1.39045	0.811705	1.74644	0.941228	-0.501423	0.119225	-0.250933	0.251055	-0.125332	0	0	-0.00643524	-0.0447318	-0.151776	0.166678	-0.231437	0	0	-0.356954	0.120871	0.209825	-0.205818	-0.748354	-0.131416	1.66556	0.617142	0	0	0.50668	-0.52296	0.620209	1.20976	0.758102	0	0
2.24	3.05887	1.21942	-1.37492	0.810573	1.75652	0.939159	-0.50021	0.120985	-0.250637	0.262809	-0.118857	0	0	-0.0135891	-0.0411895	-0.143241	0.110503	-0.249064	0	0	-0.348947	0.125745	0.205404	-0.204189	-0.748595	-0.130231	1.66432	0.618529	0	0	0.503246	-0.521279	0.615528	1.20965	0.762493	0	0
2.25	3.04547	1.22537	-1.359	0.809479	1.76664	0.936961	-0.498561	0.123176	-0.249226	0.277207	-0.112341	0	0	-0.015681	-0.0404277	-0.137167	0.0810203	-0.26317	0	0	-0.342167	0.130683	0.202101	-0.202781	-0.749795	-0.129176	1.66357	0.619534	0	0	0.50062	-0.520184	0.612056	1.21051	0.76413	0	0
2.26	3.03739	1.22875	-1.34856	0.808634	1.77691	0.934993	-0.499555	0.124699	-0.248222	0.291216	-0.108177	0	0	-0.0140669	-0.0402828	-0.135464	0.0840021	-0.271332	0	0	-0.338262	0.133145	0.199166	-0.201354	-0.74972	-0.128534	1.66257	0.620272	0	0	0.499903	-0.52051	0.610996	1.21163	0.764793	0	0
2.27	3.03677	1.22886	-1.34721	0.807981	1.78721	0.933467	-0.503248	0.123568	-0.246157	0.307487	-0.103449	0	0	-0.0130589	-0.0388515	-0.136281	0.112365	-0.275653	0	0	-0.338672	0.132815	0.197358	-0.198922	-0.749432	-0.127243	1.6616	0.621879	0	0	0.499846	-0.521688	0.610213	1.21336	0.764918	0	0
2.28	3.0421	1.22529	-1.35362	0.807378	1.79758	0.932392	-0.510636	0.120301	-0.242277	0.324206	-0.1019	0	0	-0.0183096	-0.0351205	-0.133442	0.14741	-0.272455	0	0	-0.343629	0.130655	0.197792	-0.197514	-0.749767	-0.126843	1.66155	0.623379	0	0	0.501165	-0.522673	0.610733	1.21504	0.764791	0	0
